<?xml version="1.0" encoding="UTF-8" standalone="no"?>
<svg
   xmlns:osb="http://www.openswatchbook.org/uri/2009/osb"
   xmlns:dc="http://purl.org/dc/elements/1.1/"
   xmlns:cc="http://creativecommons.org/ns#"
   xmlns:rdf="http://www.w3.org/1999/02/22-rdf-syntax-ns#"
   xmlns:svg="http://www.w3.org/2000/svg"
   xmlns="http://www.w3.org/2000/svg"
   xmlns:xlink="http://www.w3.org/1999/xlink"
   xmlns:sodipodi="http://sodipodi.sourceforge.net/DTD/sodipodi-0.dtd"
   xmlns:inkscape="http://www.inkscape.org/namespaces/inkscape"
   width="1920"
   height="1080"
   viewBox="0 0 2112 1188"
   version="1.1"
   id="svg8"
   inkscape:version="1.0.1 (3bc2e813f5, 2020-09-07)"
   sodipodi:docname="about-LithiumAdmin.svg">
  <defs
     id="defs2">
    <linearGradient
       id="linearGradient2920"
       osb:paint="solid">
      <stop
         style="stop-color:#3300ff;stop-opacity:1;"
         offset="0"
         id="stop2918" />
    </linearGradient>
    <linearGradient
       inkscape:collect="always"
       id="linearGradient838-2">
      <stop
         style="stop-color:#ff0057;stop-opacity:1"
         offset="0"
         id="stop834" />
      <stop
         style="stop-color:#4900ff;stop-opacity:1"
         offset="1"
         id="stop836" />
    </linearGradient>
    <linearGradient
       inkscape:collect="always"
       xlink:href="#linearGradient838-2"
       id="linearGradient840"
       x1="113.1645"
       y1="109.59892"
       x2="1102.7238"
       y2="324.94324"
       gradientUnits="userSpaceOnUse"
       gradientTransform="translate(-61.321332,17.189397)" />
  </defs>
  <sodipodi:namedview
     id="base"
     pagecolor="#4d4d4d"
     bordercolor="#ffffff"
     borderopacity="1"
     inkscape:pageopacity="0"
     inkscape:pageshadow="2"
     inkscape:zoom="4"
     inkscape:cx="1187.1602"
     inkscape:cy="177.96531"
     inkscape:document-units="px"
     inkscape:current-layer="layer1"
     inkscape:document-rotation="0"
     showgrid="false"
     units="px"
     inkscape:pagecheckerboard="true"
     inkscape:showpageshadow="false"
     borderlayer="false"
     scale-x="1.1"
     inkscape:window-width="1920"
     inkscape:window-height="1017"
     inkscape:window-x="-8"
     inkscape:window-y="-8"
     inkscape:window-maximized="1"
     inkscape:snap-bbox="true"
     inkscape:bbox-paths="true"
     inkscape:bbox-nodes="true"
     inkscape:snap-bbox-edge-midpoints="true"
     inkscape:snap-bbox-midpoints="true"
     inkscape:object-paths="true"
     inkscape:snap-intersection-paths="true"
     inkscape:snap-smooth-nodes="true"
     inkscape:snap-midpoints="true"
     inkscape:snap-object-midpoints="true"
     inkscape:snap-text-baseline="true"
     inkscape:snap-center="true"
     inkscape:snap-page="true"
     showguides="false"
     inkscape:snap-global="true">
    <inkscape:grid
       type="xygrid"
       id="grid908" />
  </sodipodi:namedview>
  <metadata
     id="metadata5">
    <rdf:RDF>
      <cc:Work
         rdf:about="">
        <dc:format>image/svg+xml</dc:format>
        <dc:type
           rdf:resource="http://purl.org/dc/dcmitype/StillImage" />
        <dc:title />
        <dc:creator>
          <cc:Agent>
            <dc:title>P3tray</dc:title>
          </cc:Agent>
        </dc:creator>
        <dc:language>English</dc:language>
        <dc:subject>
          <rdf:Bag />
        </dc:subject>
        <dc:description>Official P3tray.ORG Artwork.</dc:description>
        <dc:publisher>
          <cc:Agent>
            <dc:title>P3tray.ORG</dc:title>
          </cc:Agent>
        </dc:publisher>
        <dc:contributor>
          <cc:Agent>
            <dc:title />
          </cc:Agent>
        </dc:contributor>
      </cc:Work>
    </rdf:RDF>
  </metadata>
  <g
     inkscape:label="Layer 1"
     inkscape:groupmode="layer"
     id="layer1">
    <path
       id="path1026"
       style="color:#000000;font-style:normal;font-variant:normal;font-weight:normal;font-stretch:normal;font-size:medium;line-height:normal;font-family:sans-serif;font-variant-ligatures:normal;font-variant-position:normal;font-variant-caps:normal;font-variant-numeric:normal;font-variant-alternates:normal;font-variant-east-asian:normal;font-feature-settings:normal;font-variation-settings:normal;text-indent:0;text-align:start;text-decoration:none;text-decoration-line:none;text-decoration-style:solid;text-decoration-color:#000000;letter-spacing:normal;word-spacing:normal;text-transform:none;writing-mode:lr-tb;direction:ltr;text-orientation:mixed;dominant-baseline:auto;baseline-shift:baseline;text-anchor:start;white-space:normal;shape-padding:0;shape-margin:0;inline-size:0;clip-rule:nonzero;display:inline;overflow:visible;visibility:visible;isolation:auto;mix-blend-mode:normal;color-interpolation:sRGB;color-interpolation-filters:linearRGB;solid-color:#000000;solid-opacity:1;vector-effect:none;fill:#ffffff;fill-opacity:1;fill-rule:nonzero;stroke:none;stroke-width:100;stroke-linecap:butt;stroke-linejoin:miter;stroke-miterlimit:4;stroke-dasharray:100, 100;stroke-dashoffset:0;stroke-opacity:1;color-rendering:auto;image-rendering:auto;shape-rendering:auto;text-rendering:auto;enable-background:accumulate;stop-color:#000000"
       d="m 0,0 v 1080 h 1069.7891 c -0.073,-2e-4 -0.1459,0 -0.2188,0 -0.074,0 -0.1472,0 -0.2207,-0.01 -0.073,0 -0.1459,-0.011 -0.2187,-0.018 -0.072,-0.01 -0.1446,-0.013 -0.2168,-0.022 -0.4368,-0.052 -0.8681,-0.142 -1.2891,-0.2695 -0.2107,-0.063 -0.4186,-0.1354 -0.623,-0.2168 -0.1358,-0.055 -0.27,-0.1133 -0.4024,-0.1758 -0.1984,-0.093 -0.3925,-0.1947 -0.582,-0.3047 -0.1266,-0.074 -0.251,-0.1513 -0.3731,-0.2324 -0.1222,-0.081 -0.242,-0.1645 -0.3593,-0.252 -0.059,-0.044 -0.1166,-0.089 -0.1739,-0.1347 -0.057,-0.045 -0.1126,-0.092 -0.1679,-0.1387 -0.057,-0.048 -0.1127,-0.097 -0.168,-0.1465 -0.1084,-0.097 -0.2139,-0.1975 -0.3164,-0.3008 -0.361,-0.3645 -0.6837,-0.765 -0.9629,-1.1953 -0.1196,-0.1844 -0.231,-0.3741 -0.334,-0.5683 -0.034,-0.065 -0.067,-0.1297 -0.1,-0.1953 -0.097,-0.1972 -0.1847,-0.3986 -0.2637,-0.6036 -0.026,-0.068 -0.052,-0.1363 -0.076,-0.205 -0.049,-0.138 -0.094,-0.2774 -0.1348,-0.418 -0.061,-0.2105 -0.1136,-0.4236 -0.1563,-0.6387 -0.029,-0.1438 -0.054,-0.2884 -0.074,-0.4336 -0.01,-0.073 -0.018,-0.1457 -0.025,-0.2187 -0.029,-0.266 -0.043,-0.5333 -0.043,-0.8008 v -43.3652 c 0,-4.1421 3.3579,-7.5 7.5,-7.5 -4.1421,0 -7.5,-3.3579 -7.5,-7.5 v -20.60941 c 4e-4,-4.14195 3.358,-7.49956 7.5,-7.5 h 24.3886 c 4.1421,2e-5 7.5,3.35787 7.5,7.5 0,-4.14213 3.3579,-7.49998 7.5,-7.5 h 45 c 4.1421,2e-5 7.5,3.35787 7.5,7.5 0,-4.14213 3.3579,-7.49998 7.5,-7.5 h 45 c 4.1429,-0.001 7.502,3.35709 7.502,7.5 0,-4.14213 3.3579,-7.49998 7.5,-7.5 h 45 c 4.1421,2e-5 7.5,3.35787 7.5,7.5 0,-4.14213 3.3579,-7.49998 7.5,-7.5 h 45 c 4.1421,2e-5 7.5,3.35787 7.5,7.5 0,-4.14213 3.3579,-7.49998 7.5,-7.5 h 45 c 4.1421,2e-5 7.5,3.35787 7.5,7.5 0,-4.14213 3.3579,-7.49998 7.5,-7.5 h 45 c 4.1421,2e-5 7.5,3.35787 7.5,7.5 0,-4.14213 3.3579,-7.49998 7.5,-7.5 h 45 c 4.1421,2e-5 7.5,3.35787 7.5,7.5 0,-4.14213 3.3579,-7.49998 7.5,-7.5 h 45 c 4.1421,2e-5 7.5,3.35787 7.5,7.5 0,-4.14213 3.3579,-7.49998 7.5,-7.5 h 45.0019 c 4.1421,2e-5 7.5,3.35787 7.5,7.5 0,-4.14213 3.3579,-7.49998 7.5,-7.5 h 45 c 4.1421,2e-5 7.5,3.35787 7.5,7.5 0,-4.14213 3.3579,-7.49998 7.5,-7.5 h 45 c 4.1421,2e-5 7.5,3.35787 7.5,7.5 0,-4.14213 3.3579,-7.49998 7.5,-7.5 h 45 c 4.1421,2e-5 7.5,3.35787 7.5,7.5 0,-4.14213 3.3579,-7.49998 7.5,-7.5 h 45 c 4.1421,2e-5 7.5,3.35787 7.5,7.5 0,-4.14213 3.3579,-7.49998 7.5,-7.5 H 1912.5 c 4.142,4.4e-4 7.4996,3.35805 7.5,7.5 V 0 Z m 1881.6816,993.52539 c 0,4.14213 -3.3579,7.50001 -7.5,7.50001 h -45 c -4.1421,0 -7.5,-3.35788 -7.5,-7.50001 0,4.14213 -3.3579,7.50001 -7.5,7.50001 h -45 c -4.1421,0 -7.5,-3.35788 -7.5,-7.50001 0,4.14213 -3.3579,7.50001 -7.5,7.50001 h -45 c -4.1421,0 -7.5,-3.35788 -7.5,-7.50001 0,4.14213 -3.3579,7.50001 -7.5,7.50001 h -45 c -4.1421,0 -7.5,-3.35788 -7.5,-7.50001 0,4.14213 -3.3579,7.50001 -7.5,7.50001 h -45.0019 c -4.1421,0 -7.5,-3.35788 -7.5,-7.50001 0,4.14213 -3.3579,7.50001 -7.5,7.50001 h -45 c -4.1421,0 -7.5,-3.35788 -7.5,-7.50001 0,4.14213 -3.3579,7.50001 -7.5,7.50001 h -45 c -4.1421,0 -7.5,-3.35788 -7.5,-7.50001 0,4.14213 -3.3579,7.50001 -7.5,7.50001 h -45 c -4.1421,0 -7.5,-3.35788 -7.5,-7.50001 0,4.14213 -3.3579,7.50001 -7.5,7.50001 h -45 c -4.1421,0 -7.5,-3.35788 -7.5,-7.50001 0,4.14213 -3.3579,7.50001 -7.5,7.50001 h -45 c -4.1421,0 -7.5,-3.35788 -7.5,-7.50001 0,4.14213 -3.3579,7.50001 -7.5,7.50001 h -45 c -4.1421,0 -7.5,-3.35788 -7.5,-7.50001 0,4.14291 -3.3591,7.50111 -7.502,7.50001 h -45 c -4.1421,0 -7.5,-3.35788 -7.5,-7.50001 0,4.14213 -3.3579,7.50001 -7.5,7.50001 h -45 c -4.1421,0 -7.5,-3.35788 -7.5,-7.50001 0,4.14213 -3.3579,7.50001 -7.5,7.50001 h -16.8886 v 13.1094 c 0,4.1421 -3.3579,7.5 -7.5,7.5 4.1421,0 7.5,3.3579 7.5,7.5 V 1065 h 37.5 c 4.1421,0 7.5,3.3579 7.5,7.5 0,-4.1421 3.3579,-7.5 7.5,-7.5 h 45.0019 c 4.1421,0 7.5,3.3579 7.5,7.5 0,-4.1421 3.3579,-7.5 7.5,-7.5 h 45 c 4.1421,0 7.5,3.3579 7.5,7.5 0,-4.1421 3.3579,-7.5 7.5,-7.5 h 45 c 4.1421,0 7.5,3.3579 7.5,7.5 0,-4.1421 3.3579,-7.5 7.5,-7.5 h 45 c 4.1421,0 7.5,3.3579 7.5,7.5 0,-4.1421 3.3579,-7.5 7.5,-7.5 h 45 c 4.1421,0 7.5,3.3579 7.5,7.5 0,-4.1421 3.3579,-7.5 7.5,-7.5 h 45 c 4.1421,0 7.5,3.3579 7.5,7.5 0,-4.1421 3.3579,-7.5 7.5,-7.5 h 45 c 4.1421,0 7.5,3.3579 7.5,7.5 0,-4.1421 3.3579,-7.5 7.5,-7.5 h 45.002 c 4.1421,0 7.5,3.3579 7.5,7.5 0,-4.1421 3.3579,-7.5 7.5,-7.5 h 45 c 4.1421,0 7.5,3.3579 7.5,7.5 0,-4.1421 3.3579,-7.5 7.5,-7.5 h 45 c 4.1421,0 7.5,3.3579 7.5,7.5 0,-4.1421 3.3579,-7.5 7.5,-7.5 h 45 c 4.1421,0 7.5,3.3579 7.5,7.5 0,-4.1421 3.3579,-7.5 7.5,-7.5 h 45 c 4.1421,0 7.5,3.3579 7.5,7.5 0,-4.1421 3.3579,-7.5 7.5,-7.5 h 45 c 4.1421,0 7.5,3.3579 7.5,7.5 -3e-4,-2.23 0.9918,-4.3444 2.707,-5.7695 v -36.5254 c 0,-4.1421 3.3579,-7.5 7.5,-7.5 -4.1421,0 -7.5,-3.3579 -7.5,-7.5 v -14.1797 h -15.8184 c -4.1421,0 -7.5,-3.35788 -7.5,-7.50001 z m 30.8184,29.17971 c 4.1421,0 7.5,3.3579 7.5,7.5 v -15 c 0,4.1421 -3.3579,7.5 -7.5,7.5 z m -10.207,49.7949 c 0,4.1421 -3.3579,7.5 -7.5,7.5 h 15 c -4.1421,0 -7.5,-3.3579 -7.5,-7.5 z m -60,0 c 0,4.1421 -3.3579,7.5 -7.5,7.5 h 15 c -4.1421,0 -7.5,-3.3579 -7.5,-7.5 z m -60,0 c 0,4.1421 -3.3579,7.5 -7.5,7.5 h 15 c -4.1421,0 -7.5,-3.3579 -7.5,-7.5 z m -60,0 c 0,4.1421 -3.3579,7.5 -7.5,7.5 h 15 c -4.1421,0 -7.5,-3.3579 -7.5,-7.5 z m -60,0 c 0,4.1421 -3.3579,7.5 -7.5,7.5 h 15 c -4.1421,0 -7.5,-3.3579 -7.5,-7.5 z m -60,0 c 0,4.1421 -3.3579,7.5 -7.5,7.5 h 15 c -4.1421,0 -7.5,-3.3579 -7.5,-7.5 z m -60.002,0 c 0,4.1421 -3.3579,7.5 -7.5,7.5 h 15 c -4.1421,0 -7.5,-3.3579 -7.5,-7.5 z m -60,0 c 0,4.1421 -3.3579,7.5 -7.5,7.5 h 15 c -4.1421,0 -7.5,-3.3579 -7.5,-7.5 z m -60,0 c 0,4.1421 -3.3579,7.5 -7.5,7.5 h 15 c -4.1421,0 -7.5,-3.3579 -7.5,-7.5 z m -60,0 c 0,4.1421 -3.3579,7.5 -7.5,7.5 h 15 c -4.1421,0 -7.5,-3.3579 -7.5,-7.5 z m -60,0 c 0,4.1421 -3.3579,7.5 -7.5,7.5 h 15 c -4.1421,0 -7.5,-3.3579 -7.5,-7.5 z m -60,0 c 0,4.1421 -3.3579,7.5 -7.5,7.5 h 15 c -4.1421,0 -7.5,-3.3579 -7.5,-7.5 z m -60,0 c 0,4.1421 -3.3579,7.5 -7.5,7.5 h 15 c -4.1421,0 -7.5,-3.3579 -7.5,-7.5 z m -60.0019,0 c 0,4.1421 -3.3579,7.5 -7.5,7.5 h 15 c -4.1421,0 -7.5,-3.3579 -7.5,-7.5 z m 23.832,-998.113281 c 56.162,0 101.7969,45.634891 101.7969,101.796871 0,56.16199 -45.6349,101.79688 -101.7969,101.79688 -56.1619,0 -101.7969,-45.63489 -101.7969,-101.79688 0,-56.16198 45.6349,-101.796871 101.7969,-101.796871 z m 319.7559,1.820312 h 4.7636 v 33.999999 c 2.7432,-2.74318 5.5225,-4.98035 8.3379,-6.71289 2.8154,-1.80473 6.0273,-2.70703 9.6367,-2.70703 5.4142,0 9.3855,1.62454 11.9121,4.87305 2.5266,3.24851 3.7891,8.265 3.7891,15.05078 v 33.35156 h -4.7637 v -32.70117 c 0,-5.55856 -0.9395,-9.63752 -2.8164,-12.23633 -1.8047,-2.67099 -4.8365,-4.00586 -9.0957,-4.00586 -3.1042,0 -5.9187,0.82988 -8.4453,2.49024 -2.5266,1.58815 -5.3784,4.00539 -8.5547,7.2539 v 39.19922 h -4.7636 z m -56.0918,4.763672 c 1.2272,0 2.239,0.397322 3.0332,1.191406 0.8662,0.721891 1.2988,1.769037 1.2988,3.140625 0,1.227219 -0.4326,2.237172 -1.2988,3.03125 -0.7942,0.794079 -1.806,1.191407 -3.0332,1.191407 -1.2273,0 -2.2744,-0.397328 -3.1407,-1.191407 -0.794,-0.794078 -1.1894,-1.804031 -1.1894,-3.03125 0,-1.371588 0.3954,-2.418734 1.1894,-3.140625 0.8663,-0.794084 1.9134,-1.191406 3.1407,-1.191406 z m 115.7558,0 c 1.2272,0 2.2371,0.397322 3.0313,1.191406 0.8662,0.721891 1.2988,1.769037 1.2988,3.140625 0,1.227219 -0.4326,2.237172 -1.2988,3.03125 -0.7942,0.794079 -1.8041,1.191407 -3.0313,1.191407 -1.2272,0 -2.2744,-0.397328 -3.1406,-1.191407 -0.7941,-0.794078 -1.1914,-1.804031 -1.1914,-3.03125 0,-1.371588 0.3973,-2.418734 1.1914,-3.140625 0.8662,-0.794084 1.9134,-1.191406 3.1406,-1.191406 z m -168.2734,1.732422 h 4.9824 v 67.027345 h 32.918 v 4.33203 h -37.9004 z m 357.9844,0 h 38.875 v 4.332031 h -33.8926 v 28.371094 h 28.6953 v 4.33008 h -28.6953 v 34.32617 h -4.9824 z m -569.1309,1.683594 c -50.7576,0 -91.7969,41.039291 -91.7969,91.796871 0,50.75759 41.0393,91.79688 91.7969,91.79688 50.7576,0 91.7969,-41.03929 91.7969,-91.79688 0,-50.75758 -41.0393,-91.796871 -91.7969,-91.796871 z m 287.9199,2.648437 h 4.1152 v 15.050784 h 15.0508 v 4.11523 h -15.0508 v 33.89258 c 0,1.66035 0.1077,3.17723 0.3243,4.54883 0.2888,1.2994 0.7585,2.4542 1.4082,3.46484 0.6497,0.93846 1.5148,1.69592 2.5976,2.27344 1.155,0.50532 2.6348,0.75781 4.4395,0.75781 1.0106,0 2.095,-0.14483 3.25,-0.43359 1.2272,-0.36095 2.3095,-0.75632 3.248,-1.18946 l 1.2989,3.89649 c -1.516,0.57751 -3.0309,1.04726 -4.5469,1.4082 -1.516,0.36095 -2.8156,0.54102 -3.8985,0.54102 -2.5266,0 -4.6208,-0.39733 -6.2812,-1.19141 -1.6604,-0.72189 -2.9952,-1.76708 -4.0059,-3.13867 -1.0106,-1.37159 -1.7328,-3.03332 -2.166,-4.98242 -0.361,-1.94911 -0.541,-4.07863 -0.541,-6.38867 v -33.45899 h -8.1211 v -3.68164 l 8.2285,-0.43359 z m 192.3106,13.751954 c 4.1869,0 7.4008,0.97472 9.6386,2.92383 2.2379,1.87692 3.8253,4.43899 4.7637,7.6875 3.0319,-3.24851 5.9561,-5.81058 8.7715,-7.6875 2.8876,-1.94911 5.847,-2.92383 8.8789,-2.92383 10.3952,0 15.5918,6.64103 15.5918,19.92383 v 33.35156 h -4.8711 v -32.70117 c 0,-5.55856 -0.9394,-9.63752 -2.8164,-12.23633 -1.8769,-2.67099 -4.8011,-4.00586 -8.7715,-4.00586 -4.6923,0 -9.8888,3.24712 -15.5918,9.74414 v 39.19922 h -4.7656 v -32.70117 c 0,-5.55856 -0.9376,-9.63752 -2.8145,-12.23633 -1.8769,-2.67099 -4.8363,-4.00586 -8.8789,-4.00586 -4.6923,0 -9.8908,3.24712 -15.5937,9.74414 v 39.19922 h -4.7637 v -51.97656 h 4.1152 l 0.4317,8.01367 h 0.3262 c 2.31,-2.67099 4.8721,-4.87293 7.6875,-6.60547 2.8875,-1.80473 5.7745,-2.70703 8.6621,-2.70703 z m 157.7695,0 c 3.1041,0 6.0635,0.61263 8.8789,1.83984 2.8876,1.22722 5.3772,2.9966 7.4707,5.30664 2.1657,2.31006 3.8626,5.19704 5.0898,8.66211 1.2994,3.39289 1.9493,7.25655 1.9493,11.58789 0,4.33135 -0.6499,8.19306 -1.9493,11.58594 -1.2272,3.3207 -2.9241,6.13526 -5.0898,8.44531 -2.0935,2.31005 -4.5831,4.07943 -7.4707,5.30664 -2.8154,1.22722 -5.7748,1.83985 -8.8789,1.83985 -3.1041,0 -6.0635,-0.61263 -8.8789,-1.83985 -2.8153,-1.22721 -5.307,-2.99659 -7.4727,-5.30664 -2.0935,-2.31005 -3.7904,-5.12461 -5.0898,-8.44531 -1.2272,-3.39288 -1.8399,-7.25459 -1.8399,-11.58594 0,-4.33134 0.6127,-8.195 1.8399,-11.58789 1.2994,-3.46507 2.9963,-6.35205 5.0898,-8.66211 2.1657,-2.31004 4.6574,-4.07942 7.4727,-5.30664 2.8154,-1.22721 5.7748,-1.83984 8.8789,-1.83984 z m 58.582,0 c 1.0106,0 1.9129,0.0724 2.7071,0.2168 0.794,0.14438 1.6239,0.4321 2.4902,0.86523 l -1.084,4.33203 c -0.8662,-0.36094 -1.6237,-0.5782 -2.2734,-0.65039 -0.6497,-0.14438 -1.4796,-0.21484 -2.4903,-0.21484 -2.31,0 -4.7645,1.00995 -7.3632,3.03125 -2.5267,1.9491 -4.801,5.37825 -6.8223,10.28711 v 35.4082 h -4.7637 v -51.97656 h 4.1133 l 0.4336,9.63867 h 0.3262 c 1.7325,-3.24851 3.8248,-5.88496 6.2793,-7.90625 2.5266,-2.0213 5.343,-3.03125 8.4472,-3.03125 z m -435.4082,1.29883 h 4.7637 v 51.97656 h -4.7637 z m 115.7559,0 h 4.7637 v 51.97656 h -4.7637 z m 24.0371,0 h 4.7656 v 32.70312 c 0,5.55856 0.9023,9.67275 2.707,12.34375 1.877,2.59881 4.9088,3.89844 9.0957,3.89844 3.1042,0 5.9188,-0.82988 8.4454,-2.49023 2.5266,-1.73254 5.3059,-4.44141 8.3379,-8.12305 v -38.33203 h 4.7656 v 51.97656 h -4.0078 l -0.5411,-8.66211 h -0.2167 c -2.5267,3.03195 -5.1964,5.44918 -8.0118,7.25391 -2.8153,1.80472 -6.0292,2.70703 -9.6386,2.70703 -5.4142,0 -9.3835,-1.62454 -11.9102,-4.87305 -2.5266,-3.24851 -3.791,-8.265 -3.791,-15.05078 z m 237.0332,2.92383 c -2.5988,0 -5.018,0.57739 -7.2559,1.73242 -2.2378,1.08283 -4.1873,2.67214 -5.8476,4.76562 -1.5882,2.02129 -2.8506,4.43853 -3.7891,7.25391 -0.9384,2.81537 -1.4082,5.95679 -1.4082,9.42187 0,3.39289 0.4698,6.49713 1.4082,9.3125 0.9385,2.81538 2.2009,5.23262 3.7891,7.25391 1.6603,2.0213 3.6098,3.6106 5.8476,4.76562 2.2379,1.08284 4.6571,1.62305 7.2559,1.62305 2.5988,0 5.016,-0.54021 7.2539,-1.62305 2.3101,-1.15502 4.2595,-2.74432 5.8477,-4.76562 1.6603,-2.02129 2.9599,-4.43853 3.8984,-7.25391 0.9384,-2.81537 1.4082,-5.91961 1.4082,-9.3125 0,-3.46508 -0.4698,-6.6065 -1.4082,-9.42187 -0.9385,-2.81538 -2.2381,-5.23262 -3.8984,-7.25391 -1.5882,-2.09348 -3.5376,-3.68279 -5.8477,-4.76562 -2.2379,-1.15503 -4.6551,-1.73242 -7.2539,-1.73242 z m -706.9199,15.17578 h 14.9433 v 97.39062 h 53.0762 v 12.51563 h -68.0195 z m 94.4824,7.47265 h 26.4082 v 26.40625 h -26.4082 c 0,-8.80208 0,-17.60417 0,-26.40625 z m -4.2871,35.68946 h 28.0683 v 58.22265 h 21.75 v 8.52149 h -54.4668 v -8.52149 h 21.752 v -49.70117 h -17.1035 z m 195.7051,17.19726 c 1.2681,0.0903 1.5587,1.04965 2.6953,3.36719 l 1.8379,3.74414 h 18.0761 18.0782 l 1.2148,-2.69336 c 2.129,-4.72134 2.7274,-4.96054 8.5352,-3.39258 2.775,0.74916 9.1933,2.7722 14.2617,4.49414 l 9.2148,3.13086 4.6817,8.22266 c 8.7495,15.36716 14.7541,32.49249 16.5586,47.22265 0.3874,3.16258 0.705,10.69347 0.705,16.73633 v 10.98633 l -3.2246,2.34766 c -7.4219,5.40418 -27.1528,15.04716 -31.8164,15.54883 -1.6813,0.18093 -2.205,-0.32183 -4.8672,-4.66797 -1.6409,-2.67881 -2.7882,-5.18694 -2.5488,-5.57422 0.2394,-0.38723 2.5387,-1.80922 5.1094,-3.16016 4.8603,-2.55388 6.0149,-3.90175 4.7031,-5.48242 -1.1881,-1.4315 -3.8889,-1.12395 -10.1152,1.14844 -9.5998,3.50347 -15.8814,4.74541 -26.1172,5.16601 -12.6222,0.51862 -22.0717,-0.83923 -33.9043,-4.87304 -8.1615,-2.78232 -8.8851,-2.92022 -10.0098,-1.90235 -2.3103,2.09085 -1.4746,3.28264 4.2168,6.01758 2.9858,1.43471 5.4297,2.71211 5.4297,2.83789 0,1.7626 -6.4602,11.05047 -7.6387,10.98242 -0.4642,-0.0271 -3.8986,-1.34488 -7.6308,-2.92968 -12.1288,-5.15009 -26.8991,-13.5253 -27.7461,-15.73243 -0.6752,-1.75951 -0.4722,-19.88019 0.293,-26.09375 1.7275,-14.0301 5.7736,-27.17928 12.5859,-40.90625 4.6907,-9.45201 8.727,-15.18218 11.7832,-16.73046 2.4447,-1.23854 15.0996,-5.45436 20.0488,-6.67969 3.0257,-0.74909 4.6035,-1.20498 5.5899,-1.13477 z m 197.9804,20.14258 c 2.1108,0.0358 3.6399,0.84836 5.6797,2.78516 3.0898,2.93372 3.076,6.32711 -0.041,9.72851 -1.8765,2.04763 -2.8,2.49934 -5.5977,2.74024 -2.5554,0.22 -3.8182,-0.0278 -5.3164,-1.04688 -1.0804,-0.73484 -2.5641,-2.28408 -3.2968,-3.44141 -2.7037,-4.26999 0.4261,-9.57466 6.2265,-10.55468 0.873,-0.14749 1.6421,-0.22287 2.3457,-0.21094 z m 291.5332,1.21875 h 9.17 9.1679 l -0.1777,28.66992 -0.1777,28.67188 -7.125,0.19726 c -10.0411,0.27883 -10.0176,0.28895 -10.5723,-4.61328 -0.529,-4.67647 -1.9058,-5.42274 -3.8711,-2.0957 -0.6409,1.08484 -2.602,2.9252 -4.3574,4.08789 -6.2933,4.16854 -13.8838,5.18013 -20.3145,2.70703 -4.9434,-1.90112 -9.2935,-5.99079 -11.8105,-11.10352 -2.0779,-4.22093 -2.113,-4.45823 -1.8907,-12.6875 0.1906,-7.05374 0.4709,-8.8839 1.7657,-11.51171 2.0527,-4.16617 6.8477,-8.92231 11.1621,-11.07227 4.1941,-2.09004 10.4544,-2.35622 16.0801,-0.68555 3.7195,1.1046 9.1438,5.38142 9.9179,7.82032 0.226,0.71197 1.0014,1.29492 1.7227,1.29492 1.2359,0 1.3105,-0.56713 1.3105,-9.83985 z m -375.9355,1.9043 20.5273,0.30273 c 16.6054,0.24544 21.306,0.52437 24.5996,1.45899 7.9151,2.24597 14.4112,7.30701 17.6895,13.78125 1.8418,3.63721 1.9883,4.48302 1.9883,11.39257 0,6.67823 -0.1913,7.87421 -1.8184,11.34571 -3.7344,7.96767 -9.9932,12.66458 -20.7734,15.59179 -4.5077,1.22397 -7.7135,1.46227 -23.2129,1.72657 -9.8904,0.1687 -18.2103,0.0739 -18.4902,-0.21094 -0.28,-0.28486 -0.5098,-12.86337 -0.5098,-27.95313 z m 128.9082,7.56836 c 6.1068,0.0416 12.4925,1.08857 17.5918,3.1289 l 2.7949,1.11719 v 5.31836 5.32031 l -3.6816,-1.26758 c -7.7606,-2.67002 -18.7358,-3.30444 -21.2578,-1.22851 -0.4666,0.38393 -0.8477,1.53962 -0.8477,2.56836 0,2.30406 1.1491,2.8087 10.7402,4.70508 8.1036,1.60227 11.8865,3.12415 14.6172,5.88281 2.5117,2.53743 3.1426,4.28949 3.1426,8.71875 0,11.14473 -14.2772,17.57699 -32.3242,14.56054 h -0.01 c -3.1097,-0.51972 -7.6783,-2.03944 -14.3262,-4.76171 -2.4077,-0.98606 -2.6353,-2.02821 -1.789,-8.20313 l 0.416,-3.03906 4.0371,1.63086 c 5.4606,2.20567 12.157,3.55216 17.7383,3.5664 5.847,0.0149 7.25,-0.69398 7.25,-3.6621 0,-2.67648 -0.1186,-2.73711 -11.4531,-5.81836 -10.6102,-2.88432 -13.8783,-4.70482 -16.0957,-8.9668 -1.2267,-2.35754 -1.2239,-7.55481 0.01,-9.90625 1.2973,-2.48301 4.25,-5.13676 7.5254,-6.76367 3.9832,-1.97852 9.8112,-2.94197 15.918,-2.90039 z m 118.4101,0.11328 c 6.353,-0.15907 12.6784,0.93424 17.3555,3.32031 4.3294,2.20873 9.2278,7.15473 11.332,11.43945 1.6004,3.25884 1.875,4.6591 1.875,9.58399 0,6.98222 -1.9339,11.81092 -6.6035,16.48047 -6.579,6.57901 -20.0884,10.06734 -30.7187,7.93359 -7.7125,-1.54799 -14.4417,-5.38544 -17.9571,-10.23828 -8.5671,-11.82664 -5.2838,-27.48943 7.1954,-34.32617 4.7879,-2.62307 11.1685,-4.03429 17.5214,-4.19336 z m -57.416,0.004 c 7.7016,0.0943 15.9817,1.67426 18.8594,4.0625 0.6504,0.53975 0.9219,2.54018 0.9219,6.78907 0,3.31326 -0.1197,6.02343 -0.2656,6.02343 -0.1459,0 -1.5957,-0.60357 -3.2227,-1.34179 -4.3386,-1.96871 -17.2477,-1.96743 -21.3164,0 -4.1726,2.01993 -5.2378,3.52392 -5.6016,7.91015 -0.6571,7.92322 3.4927,11.11078 15.084,11.58789 5.5039,0.22659 7.6674,0.0197 11.0801,-1.0625 l 4.2422,-1.3457 v 5.95313 5.95117 l -3.3379,1.43554 c -8.1809,3.51934 -18.3602,4.38475 -26.5195,2.25196 v 0.002 c -8.3517,-2.18294 -14.465,-6.79948 -17.6954,-13.36133 -2.0076,-4.07809 -2.1038,-4.63497 -1.8789,-10.96875 0.2819,-7.94133 1.7699,-11.51379 6.7227,-16.14648 3.9434,-3.68866 7.4646,-5.50459 13.3457,-6.88477 2.7003,-0.63369 6.0813,-0.89834 9.582,-0.85547 z m 131.461,0.8125 c 1.1805,-0.0287 2.3082,0.11513 3.2968,0.44141 l 2.42,0.79883 v 7.58008 7.58203 L 1798,228.47266 c -5.237,-0.21722 -6.0373,-0.0774 -8.8223,1.55468 -4.9143,2.88006 -5.8328,5.43303 -6.664,18.51954 l -0.7012,11.03906 h -8.7051 -8.7051 v -23.07227 -23.07031 h 8.8203 8.8223 l 0.01,3.5625 c 0.01,4.6367 0.6887,8.65039 1.4629,8.65039 0.3377,0 1.2344,-1.44831 1.9942,-3.2207 1.7793,-4.15098 4.2657,-7.38674 6.6035,-8.59571 1.8506,-0.95701 3.9622,-1.48346 5.9297,-1.53125 z m -302.3633,4.52735 v 14.47656 c 0,7.96204 0.2042,14.6789 0.4531,14.92773 0.8696,0.86961 12.2066,0.44882 15.6777,-0.58203 6.5354,-1.94082 9.4431,-5.64237 10.1192,-12.88281 0.4854,-5.19829 -0.7572,-9.16664 -3.8692,-12.34961 -2.6486,-2.70904 -6.3837,-3.58984 -15.2167,-3.58984 z m 229.2363,7.72851 c -1.0019,0.009 -2.0343,0.11848 -3.0879,0.33008 -6.8759,1.38085 -9.3101,4.77159 -8.8808,12.36719 0.2354,4.16895 0.4928,4.88816 2.498,6.95703 1.2303,1.26923 3.2065,2.63654 4.3906,3.03711 3.0343,1.02655 7.9827,0.5692 11.0664,-1.02344 6.617,-3.41742 7.7444,-14.53387 1.9375,-19.10156 -2.1881,-1.72118 -4.9181,-2.59435 -7.9238,-2.56641 z m 116.3672,0.35547 c -4.6127,-0.12268 -9.1845,1.81167 -11.125,5.61524 -1.7934,3.51527 -1.5453,9.14975 0.5254,11.94531 3.7567,5.07181 10.607,6.46188 16.4961,3.34765 4.1593,-2.19949 5.5754,-5.09185 5.2871,-10.79101 -0.1683,-3.32689 -0.584,-4.92356 -1.5664,-6.00977 -2.4175,-2.67305 -6.0296,-4.012 -9.6172,-4.10742 z m -290.6348,0.26367 3.9024,0.63672 c 2.146,0.34968 6.2677,0.44905 9.1601,0.22071 l 5.2598,-0.41602 v 16.98047 16.98047 h -8.7148 -8.7149 l -0.4472,-11.70508 c -0.2442,-6.43807 -0.4442,-14.17855 -0.4454,-17.20117 z m -139.8164,0.55469 c -1.196,-0.044 -2.4359,0.0506 -3.707,0.28906 -3.0925,0.58019 -7.7404,4.60862 -9.3145,8.07422 -1.672,3.68114 -1.672,10.6451 0,14.32617 1.364,3.00311 6.1646,7.52493 8.4688,7.97657 3.504,0.68666 7.76,0.34505 10.3477,-0.83008 7.376,-3.34956 10.2123,-13.62262 6.0878,-22.05274 -2.3544,-4.81233 -6.6998,-7.59253 -11.8828,-7.7832 z m -50.8808,0.0801 c -2.9287,0.0739 -5.1658,1.0269 -7.5782,3.0918 -3.8489,3.29452 -5.3447,6.80964 -5.3632,12.59179 -0.016,5.26027 0.9989,7.95524 4.2578,11.30078 3.1363,3.2197 5.5747,4.12357 10.4726,3.87891 3.3813,-0.1689 4.7995,-0.61428 7.0879,-2.22266 6.2078,-4.36299 8.0528,-13.36871 4.3086,-21.02148 -2.1702,-4.43572 -5.2955,-6.75275 -9.9941,-7.4082 -1.1624,-0.16214 -2.2152,-0.23556 -3.1914,-0.21094 z m -5.5664,529.52344 c 1.7744,-0.0119 3.981,-0.003 6.7675,0.0176 l 11.0782,0.082 1.9121,0.69921 c 2.7867,1.01801 4.5921,2.17977 6.8125,4.38477 2.2523,2.23655 3.6272,4.43942 4.6367,7.42969 l 0.7031,2.08398 0.088,15.04297 c 0.056,9.78018 -0.01,15.5726 -0.1875,16.55469 -0.8457,4.65518 -4.8794,8.91743 -9.4316,9.9668 -1.4323,0.33027 -31.7499,0.32114 -33.1563,-0.01 -1.2516,-0.29455 -3.463,-1.34001 -4.4824,-2.11719 -2.2731,-1.73327 -4.2362,-4.78244 -4.7949,-7.45117 -0.1918,-0.91609 -0.2891,-6.25466 -0.2891,-15.84766 0,-16.56909 0.033,-16.90748 1.9981,-20.96093 1.0236,-2.11155 1.5335,-2.80431 3.4687,-4.69922 1.3352,-1.30737 2.9285,-2.57286 3.8692,-3.07422 0.8797,-0.46882 1.6599,-0.85193 1.7324,-0.85156 0.073,2.7e-4 0.5157,-0.16038 0.9844,-0.35547 1.5341,-0.63893 2.9676,-0.85891 8.291,-0.89453 z m 158.5722,0.082 c 1.7745,-0.0119 3.9811,-0.003 6.7676,0.0176 l 11.0781,0.082 1.9121,0.69726 c 2.7868,1.018 4.5922,2.18172 6.8125,4.38672 2.2523,2.23655 3.6273,4.43737 4.6368,7.42774 l 0.7031,2.08593 0.086,15.04297 c 0.056,9.78009 -0.01,15.57074 -0.1875,16.55274 -0.8457,4.65527 -4.8777,8.91743 -9.4297,9.96679 -1.4322,0.33028 -31.7498,0.3231 -33.1562,-0.008 -1.2516,-0.29454 -3.465,-1.34 -4.4844,-2.11719 -2.2731,-1.73327 -4.2342,-4.78244 -4.793,-7.45117 -0.1918,-0.91609 -0.289,-6.25475 -0.289,-15.84765 0,-16.5691 0.031,-16.9074 1.9961,-20.96094 1.0236,-2.11146 1.5355,-2.80422 3.4707,-4.69922 1.3352,-1.30727 2.9285,-2.57286 3.8691,-3.07422 0.8797,-0.46882 1.66,-0.85388 1.7324,-0.85351 0.073,1.8e-4 0.5138,-0.15834 0.9825,-0.35352 1.5342,-0.63893 2.9696,-0.85893 8.2929,-0.89453 z m 158.9668,0.082 c 1.7745,-0.0119 3.9811,-0.003 6.7676,0.0176 l 11.0801,0.082 1.9121,0.69922 c 2.7867,1.018 4.5921,2.17976 6.8125,4.38476 2.2523,2.23655 3.6253,4.43942 4.6348,7.42969 l 0.705,2.08594 0.086,15.04297 c 0.056,9.78018 -0.01,15.57064 -0.1875,16.55273 -0.8458,4.65518 -4.8796,8.91743 -9.4317,9.9668 -1.4322,0.33027 -31.7499,0.32114 -33.1562,-0.01 -1.2517,-0.29454 -3.4631,-1.33805 -4.4824,-2.11523 -2.2731,-1.73327 -4.2362,-4.7844 -4.795,-7.45313 -0.1918,-0.91609 -0.289,-6.25465 -0.289,-15.84765 0,-16.56909 0.033,-16.90749 1.998,-20.96094 1.0237,-2.11155 1.5355,-2.80431 3.4707,-4.69922 1.3352,-1.30736 2.9285,-2.57285 3.8692,-3.07422 0.8797,-0.46882 1.658,-0.85192 1.7304,-0.85156 0.073,2.7e-4 0.5158,-0.15843 0.9844,-0.35352 1.5342,-0.63893 2.9676,-0.86086 8.291,-0.89648 z m 158.5723,0.082 c 1.7745,-0.0119 3.981,-0.003 6.7676,0.0176 l 11.0801,0.082 1.9101,0.69922 c 2.7867,1.01798 4.5921,2.17976 6.8125,4.38476 2.2523,2.23658 3.6273,4.4394 4.6367,7.42969 l 0.7031,2.08399 0.088,15.04296 c 0.056,9.78018 -0.01,15.57263 -0.1875,16.55469 -0.8457,4.65521 -4.8796,8.91739 -9.4316,9.9668 -1.4323,0.33022 -31.7499,0.32151 -33.1562,-0.01 -1.2517,-0.29455 -3.4631,-1.33801 -4.4825,-2.11523 -2.2731,-1.73324 -4.2362,-4.78439 -4.7949,-7.45313 -0.1918,-0.9161 -0.2891,-6.25471 -0.2891,-15.84765 0,-16.56913 0.033,-16.90748 1.9981,-20.96094 1.0236,-2.11154 1.5336,-2.80428 3.4687,-4.69922 1.3352,-1.3073 2.9305,-2.57281 3.8711,-3.07422 0.8798,-0.46882 1.658,-0.8519 1.7305,-0.85156 0.073,2.6e-4 0.5157,-0.15835 0.9844,-0.35351 1.5341,-0.63893 2.9676,-0.86087 8.291,-0.89649 z m -1097.16602,6.54688 54.47265,54.47265 54.47266,54.47266 -0.16992,9.86523 -0.17188,9.86328 -25.77539,25.78907 c -17.10516,17.11472 -26.32195,25.95887 -27.40234,26.29296 -0.89533,0.277 -5.47317,0.45454 -10.17383,0.39454 l -8.54687,-0.11133 C 752.96048,926.18845 735.8942,909.19191 718.89648,892.12695 l 4.20313,4.22657 -62.05859,62.48242 c -50.01064,50.35076 -54.94771,55.10066 -54.39844,56.12696 1.518,2.8366 0.89859,4.083 -6.04492,12.1601 -3.6559,4.253 -7.76226,8.8982 -9.125,10.3223 -4.1178,4.3031 -3.67851,4.548 -18.53711,-10.3105 -10.929,-10.9291 -12.90039,-13.1424 -12.90039,-14.4805 0,-1.8542 1.41856,-3.303 12.91015,-13.18164 8.07736,-6.94346 9.32545,-7.56302 12.16211,-6.04493 1.02638,0.54928 4.92088,-5.26389 56.12696,-54.39843 l 63.60937,-61.03711 2.86914,2.88672 c -15.4185,-15.54377 -30.76703,-31.15638 -45.98633,-46.89258 -0.90022,-2.06707 -1.06222,-15.06328 -0.22461,-18.0586 0.41411,-1.48091 6.21097,-7.57758 26.31641,-27.67578 l 25.7832,-25.77539 9.86524,-0.16992 z m -212.04688,0.002 c 5.66821,-0.0451 11.48464,0.91809 17.42774,2.89062 26.17932,8.68898 40.45451,37.197 31.90625,63.71289 -1.37468,4.26423 -4.81989,10.981 -7.39453,14.41211 -6.60429,8.80116 -16.7998,15.87651 -27.19922,18.87696 -4.77215,1.37687 -13.81119,1.86097 -21.31055,1.14062 -5.11974,-0.4918 -8.93204,-1.72061 -15.24414,-4.91211 -8.72319,-4.41064 -15.8168,-11.00974 -20.93164,-19.4707 -5.28403,-8.74083 -7.02045,-16.2274 -6.63281,-28.58008 0.20843,-6.64187 0.71559,-9.6196 2.41797,-14.1875 4.68995,-12.58442 13.73109,-22.61583 25.87695,-28.71094 6.75239,-3.38852 13.79629,-5.11386 21.08398,-5.17187 z m 799.4629,51.04492 h 39.623 39.625 v 42.23047 42.23242 h -39.625 -39.623 v -42.23242 z m 158.5723,0.082 h 39.623 39.625 v 42.23047 42.23047 h -39.625 -39.623 v -42.23047 z m 158.9668,0.084 h 39.625 39.623 v 42.23046 42.23047 h -39.623 -39.625 v -42.23047 z m 158.5722,0.082 h 39.625 39.6231 v 42.23047 42.23046 h -39.6231 -39.625 v -42.23046 z m -477.416,0.01 -0.064,42.03711 -0.066,42.03711 -15.9003,0.0625 c -8.7458,0.0345 -16.0467,-0.0311 -16.2247,-0.14453 -0.2553,-0.163 -0.3245,-9.02529 -0.33,-42.0332 l -0.01,-41.82422 16.2988,-0.0684 z m 81.8672,0.0117 h 16.2891 16.291 l -0.066,42.03125 -0.064,42.03125 -15.9023,0.0449 c -8.746,0.0255 -16.0485,-0.0152 -16.2285,-0.0879 h -0.01 c -0.2609,-0.10591 -0.326,-8.65708 -0.3223,-42.07617 z m 76.7051,0.0703 -0.064,42.03711 -0.066,42.03711 -15.9004,0.0625 c -8.7426,0.0345 -16.0416,-0.0312 -16.2246,-0.14453 -0.2554,-0.16309 -0.3245,-9.0252 -0.3301,-42.0332 l -0.01,-41.82617 16.2988,-0.0664 z m 81.8652,0.0117 h 16.291 16.291 l -0.066,42.03125 -0.064,42.03125 -15.9024,0.0449 c -8.746,0.0255 -16.0485,-0.0152 -16.2285,-0.0879 h -0.01 c -0.261,-0.106 -0.326,-8.65717 -0.3223,-42.07617 z m 77.1035,0.0703 -0.066,42.0371 -0.064,42.03711 -15.9024,0.0625 c -8.7457,0.0345 -16.0466,-0.0311 -16.2246,-0.14453 -0.2554,-0.163 -0.3245,-9.02334 -0.3301,-42.03125 l -0.01,-41.82617 16.2988,-0.0664 z m 81.8653,0.0117 h 16.291 16.289 l -0.064,42.03125 -0.066,42.03125 -15.9004,0.0449 c -8.746,0.0254 -16.0505,-0.0132 -16.2305,-0.0859 v 0 c -0.2609,-0.10591 -0.3279,-8.65904 -0.3242,-42.07813 z m 76.707,0.0703 -0.066,42.03711 -0.064,42.03711 -15.9023,0.0625 c -8.7457,0.0343 -16.0466,-0.0309 -16.2246,-0.14454 -0.2554,-0.16305 -0.3246,-9.02326 -0.3301,-42.03125 l -0.01,-41.82617 16.2989,-0.0684 z m 81.8652,0.0117 H 1893.709 1910 l -0.066,42.03125 -0.065,42.03125 -15.9023,0.0449 c -8.746,0.0251 -16.0485,-0.0128 -16.2285,-0.0859 h -0.01 c -0.2609,-0.10598 -0.326,-8.65907 -0.3222,-42.07813 z M 498,885.79297 c 9.49041,-0.004 21.17778,0.0278 35.61719,0.0879 l 52.18945,0.2168 c 22.12958,0 40.84961,15.82202 40.84961,33.73632 l -111.4668,119.86131 c 0,0.1866 -10.31883,0.3047 -26.58398,0.3047 h -26.58399 v -44.03319 -44.03516 h -5.54492 -5.54492 V 995.9668 1040 h -19.8418 c -10.91329,0 -19.94093,-0.097 -20.06054,-0.2168 -0.32883,-0.3288 -0.23254,-79.17662 0.10937,-89.64453 0.3203,-9.80654 0.49545,-11.34836 1.95117,-17.1289 1.34468,-5.33937 3.06597,-9.9518 5.53907,-14.83789 8.43935,-16.67355 21.46993,-27.25493 38.33789,-31.13672 3.86925,-0.89042 12.56196,-1.22974 41.0332,-1.24219 z m 822.748,12.89062 19.2286,0.0664 19.2265,0.0664 c 0.2198,26.34161 -0.1359,52.68157 -0.3867,79.02148 h -19.2891 -19.2871 l 0.5157,-47.74023 h -0.01 z m 40.6661,0.0156 19.2246,0.0606 19.2246,0.0586 c 0.2199,26.3417 -0.1357,52.68157 -0.3867,79.02148 h -19.293 -19.291 c 0.4405,-26.37918 0.5215,-52.75883 0.5215,-79.14062 z m 117.9062,0.0664 19.2266,0.0664 19.2285,0.0664 c 0.2198,26.34161 -0.1379,52.68157 -0.3887,79.02148 h -19.2871 -19.2871 l 0.5137,-47.74023 h -0.01 z m 40.6641,0.0156 19.2265,0.0606 19.2246,0.0586 c 0.22,26.34161 -0.1376,52.68158 -0.3886,79.02149 h -19.291 -19.2911 c 0.4406,-26.37928 0.5196,-52.75893 0.5196,-79.14063 z m 118.3047,0.0664 19.2265,0.0664 19.2266,0.0684 c 0.2198,26.34161 -0.1359,52.67962 -0.3867,79.01953 h -19.2871 -19.2872 l 0.5137,-47.74023 h -0.01 z m 40.664,0.0156 19.2246,0.0605 19.2246,0.0606 c 0.22,26.3417 -0.1357,52.67962 -0.3867,79.01953 h -19.291 -19.293 c 0.4406,-26.37919 0.5215,-52.75688 0.5215,-79.13868 z m 117.9063,0.0664 19.2285,0.0664 19.2266,0.0664 c 0.2198,26.34157 -0.1359,52.68158 -0.3868,79.02148 h -19.2871 -19.289 l 0.5156,-47.74023 h -0.01 z m 40.666,0.0156 19.2246,0.0606 19.2246,0.0586 c 0.2199,26.34161 -0.1357,52.68158 -0.3867,79.02149 h -19.293 -19.291 c 0.4406,-26.37928 0.5215,-52.75893 0.5215,-79.14063 z M 1920,1072.5 c -4e-4,4.142 -3.358,7.4996 -7.5,7.5 h 7.5 z"
       transform="scale(1.1)"
       sodipodi:nodetypes="ccccccccccscsssscssssssccccscsccscsscsccsscsscsscsscsscsscsscsscsscsscsscscccccsscsscsscsscsscsscsscsscsscsscssccscsscscscscscsscsscsscsscsscsscsscsscsscsscsscsscssccscscscccccccccccccccccccccccccccccccccccccccccccccccccccccccccccccsssssccccsssccscscccccscscscscsscscscscsccccccccccccccccccsssssccccccscccscccsscscscccccscccssccscscccscsccccccccsscccscccssccsccsssscccscccccccccsccccccccccccscsccccccccsssscsccsssccsccsssccscccccccccccccccccccccccsccccssscssscsssssssssssscsscssssssssscssccccccsssssssssssscccsssssssscscccccsssssccsccssssscsssssssssssssssscsscccccccsssssssscccssccccccccsssscsssssscssssssssssscssscccscccccccssscssssssccsssssssccsccccssssssssscsssccsccccsssssssssssssccssccssssssssssssssccsssccsssssssssssccccccssccccsssssssccccsccccssssssscsssscccccccccccccccccccccccccccccccccccccccsscccccccccccccccccsccccccccccccccccccsscccccccccccccccccssccccccccccccccsccccscccccccssssssscccccccccccccccccccccccccccccccccccccccccccccccscccccccccccccccccccccccccsccccc" />
    <g
       id="g858"
       transform="matrix(0.25,0,0,0.25,-225.63357,-5.6430227)"
       style="stroke-width:4" />
    <g
       transform="matrix(0.4656363,0,0,0.46858793,1808.3899,708.93558)"
       id="g2221"
       style="fill:none;fill-opacity:1;stroke:#000000;stroke-width:117.745;stroke-miterlimit:4;stroke-dasharray:none;stroke-opacity:1" />
    <path
       id="rect1175"
       style="opacity:1;fill:#ffffff;fill-opacity:1;stroke:none;stroke-width:2.2;stroke-dasharray:2.2, 2.2"
       d="M 0,0 H 2112 V 44 H 0 Z" />
    <path
       id="rect1175-9"
       style="opacity:1;fill:#ffffff;fill-opacity:1;stroke:none;stroke-width:2.2;stroke-dasharray:2.2, 2.2"
       d="m 0,1144 h 2112 v 44 H 0 Z" />
  </g>
</svg>
